<!-- Generated by IcoMoon.io -->
<svg version="1.1" xmlns="http://www.w3.org/2000/svg" width="1024" height="1024" viewBox="0 0 1024 1024">
<title></title>
<g id="icomoon-ignore">
</g>
<path fill="#000" d="M370.53 879.28c-1.6-5.577 12.658-14.307 13.919-22.358 7.178-44.861 126.145-62.903 32.397-132.547-1.988-1.406 1.018-16.684 4.801-18.284 34.337-14.501 35.889-59.605 57.568-73.524 46.607-29.924-5.238-37.392-4.219-53.93 3.055-48.79 70.226 15.617 67.753-33.998-2.91-60.187 38.605-45.201 70.275-51.409 66.88-13.24 91.226-54.997 64.018-108.006-35.501-69.305-26.529-129.782 28.905-183.713 18.769-18.187 41.709-31.912 59.896-50.293 12.804-13.095 12.707-30.409-1.891-44.279-8.293-7.808-19.060-7.808-23.134 2.813-10.379 26.771-25.268 44.958-56.743 43.455-55.24-2.764-5.432-40.496-19.108-57.083-1.6-1.697-2.57-4.898-4.413-5.432-62.612-19.351-102.041-87.395-173.189-85.552-44.037-14.356-59.993 1.891-81.914 41.466-38.556 69.838-61.448 144.429-77.355 219.408-8.924 41.709 12.949 90.304-5.092 135.457-22.067 54.658-28.372 112.808-34.531 170.521-9.603 90.11 22.746 184.392-37.586 271.059-10.524 15.083 20.127 72.942 68.577 79.732 34.386 4.85 66.492 10.379 51.069-43.503z"></path>
<path fill="#000" d="M377.998 962.067c-14.986 86.182 43.261 58.635 81.866 54.415-25.656-17.169-51.457-34.192-81.866-54.415z"></path>
</svg>
