<svg xmlns="http://www.w3.org/2000/svg" xmlns:xlink="http://www.w3.org/1999/xlink" viewBox="0 0 435.63 213.44"><defs><style>.cls-1{fill-rule:evenodd;fill:url(#linear-gradient);}.cls-2{fill:#003c71;}.cls-3,.cls-4{fill:#939598;}.cls-3{stroke:#939598;stroke-miterlimit:10;stroke-width:0.5px;}</style><linearGradient id="linear-gradient" x1="-178.31" y1="-215.2" x2="-176.22" y2="-215.2" gradientTransform="matrix(196.44, 0, 0, -196.44, 35026.78, -42257.01)" gradientUnits="userSpaceOnUse"><stop offset="0.49" stop-color="#cd7925"/><stop offset="1" stop-color="#fff" stop-opacity="0"/></linearGradient></defs><title>Asset 1</title><g id="Layer_2" data-name="Layer 2"><g id="_4c" data-name="4c"><path class="cls-1" d="M0,35.22s122.42-50.41,407.39-3.49c4.24.7,4.6-10.08.35-10.89C125.23-33.33,0,35.22,0,35.22Z"/><path class="cls-2" d="M63.56,80.78q0,6.56-8.74,9.51a45,45,0,0,1-14.22,2H1.29V82.12H40.6c8.49,0,12.75-1.32,12.75-4V70.71c0-2.59-4.26-3.88-12.75-3.88H22.28q-21,0-21-9.72V50.56q0-10.29,21-10.29h39.1V50.49H22.28a50.89,50.89,0,0,0-6.06.21c-3,.33-4.51,1.24-4.51,2.75v.84c0,1.6,2,2.4,6.13,2.4h.85c.37,0,.82,0,1.34-.07H40.6a47.46,47.46,0,0,1,14.29,1.83q8.67,2.88,8.67,9.65Z"/><path class="cls-2" d="M140.2,80.78q0,6.48-8.73,9.51a46,46,0,0,1-14.23,2H99A43.13,43.13,0,0,1,84.9,90.08q-8.87-3-8.87-9.3V51.9q0-6.69,8.66-9.58a44.5,44.5,0,0,1,14.3-2h18.25q23,0,23,11.63ZM130,54.57q0-4.08-12.26-4.08H98.5q-12,0-12,4.08v23.6q0,3.94,12,4h19.23q12.26,0,12.26-4Z"/><path class="cls-2" d="M153.44,92.33V40.27h10.22V82.12h36.27V92.33Z"/><path class="cls-2" d="M214.23,92.33V40.27h10.22V92.33Z"/><path class="cls-2" d="M291.37,92.33,258.54,74.58h-6.13V92.33H242.2V40.27h41.28q9.72,0,14.51,1.48,8.38,2.69,8.38,10.15V64.51q0,5-5.64,7.89a22.59,22.59,0,0,1-10.21,2.32H277.84l33.32,17.61Zm4.79-38.46q0-3.37-12.68-3.38H252.41V64.58l38.11-.07a10.64,10.64,0,0,0,3.45-.64q2.19-.84,2.19-2.25Z"/><path class="cls-2" d="M321.87,92.33V40.27h10.21V92.33Z"/><path class="cls-2" d="M411.75,80.78q0,6.56-8.73,9.51a45.1,45.1,0,0,1-14.23,2H349.48V82.12h39.31q12.75,0,12.75-4V70.71q0-3.88-12.75-3.88H370.47q-21,0-21-9.72V50.56q0-10.29,21-10.29h39.1V50.49h-39.1a50.56,50.56,0,0,0-6.05.21c-3,.33-4.51,1.24-4.51,2.75v.84q0,2.4,6.12,2.4h.85c.37,0,.82,0,1.34-.07h20.57a47.53,47.53,0,0,1,14.3,1.83q8.66,2.88,8.66,9.65Z"/><path class="cls-2" d="M425.9,35.62a9.94,9.94,0,0,1,4.8,1.25,9,9,0,0,1,3.61,3.59,9.72,9.72,0,0,1,0,9.73,9.11,9.11,0,0,1-3.59,3.59,9.74,9.74,0,0,1-9.69,0,9.05,9.05,0,0,1-3.59-3.59,9.75,9.75,0,0,1-1.29-4.84,9.91,9.91,0,0,1,1.31-4.89,9.1,9.1,0,0,1,3.61-3.59A10,10,0,0,1,425.9,35.62Zm0,1.91a7.93,7.93,0,0,0-3.85,1,7.3,7.3,0,0,0-2.9,2.88,7.88,7.88,0,0,0,0,7.84A7.43,7.43,0,0,0,422,52.14a7.8,7.8,0,0,0,7.78,0,7.5,7.5,0,0,0,2.89-2.89,7.91,7.91,0,0,0,1-3.9,8,8,0,0,0-1.06-3.94,7.33,7.33,0,0,0-2.91-2.88A8,8,0,0,0,425.92,37.53Zm-4.41,13V40.23h2.1q2.94,0,3.3,0a4.06,4.06,0,0,1,1.62.41,2.69,2.69,0,0,1,1,1,2.87,2.87,0,0,1,.39,1.48,2.76,2.76,0,0,1-.73,1.91,3.29,3.29,0,0,1-2,1,2.64,2.64,0,0,1,.72.39,5.8,5.8,0,0,1,.7.79c.08.11.33.52.76,1.26l1.22,2.08h-2.59l-.86-1.67a7,7,0,0,0-1.45-2.13,2.32,2.32,0,0,0-1.45-.44h-.54v4.24Zm2.1-5.86h.85a10.5,10.5,0,0,0,2.25-.14,1.33,1.33,0,0,0,.69-.49,1.31,1.31,0,0,0,.26-.79,1.28,1.28,0,0,0-1-1.25,9.67,9.67,0,0,0-2.24-.15h-.85Z"/><path class="cls-3" d="M1.75,156.13h1.8v18.46H1.75Z"/><path class="cls-3" d="M12.24,162h1.51l.16,1.8a4.83,4.83,0,0,1,1.5-1.57,3.38,3.38,0,0,1,1.85-.52,3.08,3.08,0,0,1,2.51,1.08,4.41,4.41,0,0,1,.9,2.9v8.92H19v-8.92a2.57,2.57,0,0,0-.58-1.77,1.92,1.92,0,0,0-1.51-.66,2.64,2.64,0,0,0-2.13,1.1,4,4,0,0,0-.87,2.55v7.7H12.24Z"/><path class="cls-3" d="M28.92,162h1.64v15.48a4,4,0,0,1-.65,2.47,2.38,2.38,0,0,1-2,.83,3.45,3.45,0,0,1-1.41-.29v-1.59a2.16,2.16,0,0,0,1.11.33,1.11,1.11,0,0,0,1-.44,2.24,2.24,0,0,0,.32-1.31Zm.81-5.58c.65,0,1,.51,1,1.53s-.33,1.52-1,1.52-.94-.5-.94-1.51S29.09,156.4,29.73,156.4Z"/><path class="cls-3" d="M47.22,173.27a6.4,6.4,0,0,1-3.94,1.61,4.36,4.36,0,0,1-3.64-1.81,7.47,7.47,0,0,1-1.4-4.7,7.63,7.63,0,0,1,1.44-4.83,4.4,4.4,0,0,1,3.63-1.85,3.78,3.78,0,0,1,3.12,1.49,5.83,5.83,0,0,1,1.18,3.76v.82H40v.65a5.81,5.81,0,0,0,1,3.72,3,3,0,0,0,2.4,1.26,5.38,5.38,0,0,0,3.83-2.11Zm-1.38-6.92A3.47,3.47,0,0,0,45,164a2.35,2.35,0,0,0-1.75-.78,2.82,2.82,0,0,0-1.9.78,4.44,4.44,0,0,0-1.24,2.36Z"/><path class="cls-3" d="M62.81,174a5.78,5.78,0,0,1-2.88.86A4.53,4.53,0,0,1,56.17,173a7.28,7.28,0,0,1-1.44-4.6,7.61,7.61,0,0,1,1.5-4.77,4.66,4.66,0,0,1,3.88-2,5.4,5.4,0,0,1,2.7.8v1.85a4.12,4.12,0,0,0-2.58-1.09,3.29,3.29,0,0,0-2.71,1.44,5.83,5.83,0,0,0-1.1,3.63,6.2,6.2,0,0,0,1,3.49,3,3,0,0,0,2.67,1.51,4.79,4.79,0,0,0,2.73-1.08Z"/><path class="cls-3" d="M70.9,158.22h1.5V162h2.39v1.44H72.4v8.82a1.1,1.1,0,0,0,.29.83,1.14,1.14,0,0,0,.87.29,2.44,2.44,0,0,0,1.23-.42v1.65a5.47,5.47,0,0,1-1.7.29,2.4,2.4,0,0,1-1.67-.59,2.35,2.35,0,0,1-.65-1.81v-9.06H69V162h1.73Z"/><path class="cls-3" d="M83.09,156.4c.66,0,1,.49,1,1.48s-.34,1.57-1,1.57-1-.5-1-1.51S82.42,156.4,83.09,156.4ZM82.24,162H83.9v12.61H82.24Z"/><path class="cls-3" d="M96.52,161.69A4.21,4.21,0,0,1,100,163.5a7.59,7.59,0,0,1,1.39,4.78,9.44,9.44,0,0,1-.55,3.25,5.34,5.34,0,0,1-1.7,2.44,4.36,4.36,0,0,1-6.24-.95,8,8,0,0,1-1.3-4.68,8.45,8.45,0,0,1,.82-3.86,4.66,4.66,0,0,1,2-2.21A4.84,4.84,0,0,1,96.52,161.69Zm.12,1.56a2.74,2.74,0,0,0-2.5,1.4,7.56,7.56,0,0,0-.83,3.83,6.79,6.79,0,0,0,.82,3.48,2.57,2.57,0,0,0,2.31,1.4,2.73,2.73,0,0,0,2.31-1.3,6.62,6.62,0,0,0,.91-3.81,6.53,6.53,0,0,0-.89-3.69A2.56,2.56,0,0,0,96.64,163.25Z"/><path class="cls-3" d="M109.17,162h1.5l.16,1.8a4.83,4.83,0,0,1,1.5-1.57,3.43,3.43,0,0,1,1.86-.52,3.09,3.09,0,0,1,2.51,1.08,4.41,4.41,0,0,1,.9,2.9v8.92h-1.67v-8.92a2.62,2.62,0,0,0-.58-1.77,1.92,1.92,0,0,0-1.51-.66,2.64,2.64,0,0,0-2.13,1.1,4,4,0,0,0-.88,2.55v7.7h-1.66Z"/><path class="cls-3" d="M138.11,162v-2.84a4,4,0,0,1,.65-2.49,2.31,2.31,0,0,1,1.94-.82,4.47,4.47,0,0,1,1.49.3v1.51a3,3,0,0,0-1.14-.29,1.25,1.25,0,0,0-.92.36,1.34,1.34,0,0,0-.35.95V162h2.41v1.44h-2.41v11.17h-1.67V163.42H136.4V162Z"/><path class="cls-3" d="M153,161.69a4.19,4.19,0,0,1,3.46,1.81,7.59,7.59,0,0,1,1.39,4.78,9.44,9.44,0,0,1-.55,3.25,5.27,5.27,0,0,1-1.7,2.44,4.35,4.35,0,0,1-6.23-.95,8,8,0,0,1-1.31-4.68,8.58,8.58,0,0,1,.82-3.86,4.72,4.72,0,0,1,2-2.21A4.84,4.84,0,0,1,153,161.69Zm.11,1.56a2.72,2.72,0,0,0-2.49,1.4,7.45,7.45,0,0,0-.84,3.83,6.89,6.89,0,0,0,.82,3.48,2.57,2.57,0,0,0,2.31,1.4,2.73,2.73,0,0,0,2.32-1.3,6.7,6.7,0,0,0,.9-3.81,6.54,6.54,0,0,0-.88-3.69A2.58,2.58,0,0,0,153.09,163.25Z"/><path class="cls-3" d="M167.38,163.85a4.74,4.74,0,0,1,1.33-1.62,2.67,2.67,0,0,1,1.61-.54,3.3,3.3,0,0,1,1.31.29v1.56a3.86,3.86,0,0,0-1.3-.29,2.49,2.49,0,0,0-2.1,1.18,4.45,4.45,0,0,0-.85,2.7v7.46h-1.63V162h1.49Z"/><path class="cls-3" d="M190.9,156.13h1.8v18.46h-1.8Z"/><path class="cls-3" d="M201.39,162h1.5l.16,1.8a4.83,4.83,0,0,1,1.5-1.57,3.43,3.43,0,0,1,1.86-.52,3.09,3.09,0,0,1,2.51,1.08,4.41,4.41,0,0,1,.9,2.9v8.92h-1.67v-8.92a2.57,2.57,0,0,0-.58-1.77,1.92,1.92,0,0,0-1.51-.66,2.64,2.64,0,0,0-2.13,1.1,4,4,0,0,0-.88,2.55v7.7h-1.66Z"/><path class="cls-3" d="M218.68,158.22h1.49V162h2.4v1.44h-2.4v8.82a1.1,1.1,0,0,0,.29.83,1.18,1.18,0,0,0,.88.29,2.5,2.5,0,0,0,1.23-.42v1.65a5.58,5.58,0,0,1-1.71.29,2.4,2.4,0,0,1-1.67-.59,2.35,2.35,0,0,1-.65-1.81v-9.06h-1.73V162h1.73Z"/><path class="cls-3" d="M231.77,163.85a4.74,4.74,0,0,1,1.33-1.62,2.67,2.67,0,0,1,1.61-.54A3.3,3.3,0,0,1,236,162v1.56a3.91,3.91,0,0,0-1.3-.29,2.49,2.49,0,0,0-2.1,1.18,4.45,4.45,0,0,0-.85,2.7v7.46h-1.63V162h1.49Z"/><path class="cls-3" d="M244.12,162.83a7.35,7.35,0,0,1,3.4-1.14,3.8,3.8,0,0,1,3,1.15,4.59,4.59,0,0,1,1,3.13v6.66c0,.49.23.73.69.73a1.5,1.5,0,0,0,.71-.2v1.43a3.15,3.15,0,0,1-1.3.29c-1.14,0-1.73-.67-1.77-2a4.87,4.87,0,0,1-1.44,1.51,3.14,3.14,0,0,1-1.72.51,3.28,3.28,0,0,1-2.53-1.1,3.78,3.78,0,0,1-1-2.68,3.54,3.54,0,0,1,1.27-2.79q1.26-1.12,5.44-1.51v-1.09a2.43,2.43,0,0,0-.69-1.77,2.37,2.37,0,0,0-1.73-.69,5.69,5.69,0,0,0-3.34,1.47Zm5.76,5.25c-2.17.27-3.55.64-4.12,1.12a2.29,2.29,0,0,0-.87,1.84,2.25,2.25,0,0,0,.64,1.66,2.1,2.1,0,0,0,1.59.66,2.41,2.41,0,0,0,2-1,4.09,4.09,0,0,0,.78-2.58Z"/><path class="cls-3" d="M258.73,162h1.81l3,10.52L266.41,162h1.79l-3.91,12.61h-1.62Z"/><path class="cls-3" d="M283.53,173.27a6.36,6.36,0,0,1-3.93,1.61,4.38,4.38,0,0,1-3.65-1.81,7.46,7.46,0,0,1-1.39-4.7,7.63,7.63,0,0,1,1.44-4.83,4.38,4.38,0,0,1,3.63-1.85,3.79,3.79,0,0,1,3.12,1.49,5.83,5.83,0,0,1,1.18,3.76v.82h-7.65v.65a5.75,5.75,0,0,0,1,3.72,3,3,0,0,0,2.4,1.26,5.36,5.36,0,0,0,3.82-2.11Zm-1.37-6.92a3.52,3.52,0,0,0-.81-2.36,2.37,2.37,0,0,0-1.76-.78,2.82,2.82,0,0,0-1.89.78,4.51,4.51,0,0,0-1.25,2.36Z"/><path class="cls-3" d="M291.62,162h1.51l.16,1.8a4.83,4.83,0,0,1,1.5-1.57,3.43,3.43,0,0,1,1.85-.52,3.07,3.07,0,0,1,2.51,1.08,4.41,4.41,0,0,1,.9,2.9v8.92h-1.66v-8.92a2.57,2.57,0,0,0-.59-1.77,1.92,1.92,0,0,0-1.51-.66,2.66,2.66,0,0,0-2.13,1.1,4,4,0,0,0-.87,2.55v7.7h-1.67Z"/><path class="cls-3" d="M312.68,161.69a4.21,4.21,0,0,1,3.47,1.81,7.59,7.59,0,0,1,1.39,4.78,9.44,9.44,0,0,1-.55,3.25,5.34,5.34,0,0,1-1.7,2.44,4.36,4.36,0,0,1-6.24-.95,8,8,0,0,1-1.3-4.68,8.45,8.45,0,0,1,.82-3.86,4.66,4.66,0,0,1,2-2.21A4.88,4.88,0,0,1,312.68,161.69Zm.12,1.56a2.74,2.74,0,0,0-2.5,1.4,7.56,7.56,0,0,0-.83,3.83,6.79,6.79,0,0,0,.82,3.48,2.57,2.57,0,0,0,2.31,1.4,2.71,2.71,0,0,0,2.31-1.3,6.62,6.62,0,0,0,.91-3.81,6.53,6.53,0,0,0-.89-3.69A2.56,2.56,0,0,0,312.8,163.25Z"/><path class="cls-3" d="M332,162h1.67v12.61H332v-1.73a5.33,5.33,0,0,1-1.53,1.51,3.41,3.41,0,0,1-1.8.51,3,3,0,0,1-2.51-1.1,4.43,4.43,0,0,1-.91-2.93V162h1.64v8.87a2.89,2.89,0,0,0,.53,1.88,1.94,1.94,0,0,0,1.58.63,2.58,2.58,0,0,0,2.16-1.12,4.64,4.64,0,0,0,.84-2.88Z"/><path class="cls-3" d="M341.48,171.85a5.67,5.67,0,0,0,3.53,1.51,3.35,3.35,0,0,0,2.14-.66A2,2,0,0,0,348,171a1.59,1.59,0,0,0-.56-1.23,6.49,6.49,0,0,0-2.18-1,8.25,8.25,0,0,1-2.9-1.37,2.65,2.65,0,0,1-.91-2.13,3.3,3.3,0,0,1,1.23-2.61,4.54,4.54,0,0,1,3.05-1.05,6.9,6.9,0,0,1,3.3,1v1.87a4.87,4.87,0,0,0-3.22-1.38,2.83,2.83,0,0,0-1.88.61,1.86,1.86,0,0,0-.73,1.48,1.41,1.41,0,0,0,.66,1.19,6.88,6.88,0,0,0,2.16.9q3.71,1,3.7,3.52a3.58,3.58,0,0,1-1.35,2.83,5,5,0,0,1-3.29,1.14,6.67,6.67,0,0,1-3.6-1.15Z"/><path class="cls-3" d="M369.24,156.13H371v13.29a4.4,4.4,0,0,0,.84,2.83,2.84,2.84,0,0,0,2.35,1,2.9,2.9,0,0,0,2.31-1,4.26,4.26,0,0,0,.87-2.87V156.13h1.8v13.29a5.66,5.66,0,0,1-1.37,4,4.72,4.72,0,0,1-3.65,1.48,4.46,4.46,0,0,1-3.63-1.59,6.48,6.48,0,0,1-1.32-4.26Z"/><path class="cls-3" d="M386.85,171.85a5.69,5.69,0,0,0,3.53,1.51,3.4,3.4,0,0,0,2.15-.66,2,2,0,0,0,.84-1.66,1.55,1.55,0,0,0-.56-1.23,6.39,6.39,0,0,0-2.18-1,8.19,8.19,0,0,1-2.89-1.37,2.63,2.63,0,0,1-.92-2.13,3.3,3.3,0,0,1,1.23-2.61,4.56,4.56,0,0,1,3.05-1.05,7,7,0,0,1,3.31,1v1.87a4.89,4.89,0,0,0-3.23-1.38,2.79,2.79,0,0,0-1.87.61,1.87,1.87,0,0,0-.74,1.48,1.41,1.41,0,0,0,.66,1.19,6.88,6.88,0,0,0,2.16.9q3.71,1,3.7,3.52a3.58,3.58,0,0,1-1.35,2.83,5,5,0,0,1-3.29,1.14,6.67,6.67,0,0,1-3.6-1.15Z"/><path class="cls-3" d="M411.05,173.27a6.4,6.4,0,0,1-3.94,1.61,4.36,4.36,0,0,1-3.64-1.81,7.47,7.47,0,0,1-1.4-4.7,7.63,7.63,0,0,1,1.44-4.83,4.4,4.4,0,0,1,3.63-1.85,3.81,3.81,0,0,1,3.13,1.49,5.88,5.88,0,0,1,1.17,3.76v.82H403.8v.65a5.81,5.81,0,0,0,1,3.72,3,3,0,0,0,2.4,1.26,5.38,5.38,0,0,0,3.83-2.11Zm-1.38-6.92a3.46,3.46,0,0,0-.8-2.36,2.39,2.39,0,0,0-1.76-.78,2.78,2.78,0,0,0-1.89.78,4.38,4.38,0,0,0-1.25,2.36Z"/><path class="cls-4" d="M10,147.31a41.67,41.67,0,0,1-6.15-10.2A30.48,30.48,0,0,1,1.34,125a30,30,0,0,1,1.88-10.58A43.69,43.69,0,0,1,10,102.73h3.15a78.25,78.25,0,0,0-3.9,6.89A35.75,35.75,0,0,0,6.9,116.3,36.94,36.94,0,0,0,5.85,125q0,11.16,7.3,22.29Z"/><path class="cls-4" d="M47.91,130l4.54.57a11.11,11.11,0,0,1-4,6.17,11.93,11.93,0,0,1-7.42,2.2,11.9,11.9,0,0,1-9-3.5q-3.33-3.51-3.33-9.83,0-6.54,3.37-10.16a11.4,11.4,0,0,1,8.74-3.61,11.09,11.09,0,0,1,8.5,3.54q3.29,3.54,3.29,10c0,.26,0,.65,0,1.17H33.23A10,10,0,0,0,35.65,133a7.2,7.2,0,0,0,5.42,2.27A6.78,6.78,0,0,0,45.2,134,8.53,8.53,0,0,0,47.91,130Zm-14.43-7.1H48A8.69,8.69,0,0,0,46.29,118a6.74,6.74,0,0,0-5.44-2.54,7,7,0,0,0-5.09,2A8,8,0,0,0,33.48,122.86Z"/><path class="cls-4" d="M86.78,128.82l4.32.56a11.19,11.19,0,0,1-3.62,7,10.54,10.54,0,0,1-7.17,2.53,11.12,11.12,0,0,1-8.55-3.48q-3.24-3.48-3.24-10a18.18,18.18,0,0,1,1.39-7.35,9.65,9.65,0,0,1,4.24-4.72,12.56,12.56,0,0,1,6.19-1.58,10.74,10.74,0,0,1,6.91,2.14A9.79,9.79,0,0,1,90.69,120l-4.27.66a7.14,7.14,0,0,0-2.16-3.93,5.61,5.61,0,0,0-3.75-1.32,6.85,6.85,0,0,0-5.4,2.38Q73,120.17,73,125.33t2,7.59a6.51,6.51,0,0,0,5.22,2.37,6.17,6.17,0,0,0,4.33-1.59A7.92,7.92,0,0,0,86.78,128.82Z"/><path class="cls-4" d="M123.76,138.31v-3.8a9.49,9.49,0,0,1-8.23,4.39,10.46,10.46,0,0,1-4.29-.88,7,7,0,0,1-2.95-2.21,8.31,8.31,0,0,1-1.35-3.26,22.17,22.17,0,0,1-.27-4.1V112.39h4.39v14.38a25.56,25.56,0,0,0,.27,4.64,4.59,4.59,0,0,0,1.76,2.72,5.43,5.43,0,0,0,3.32,1,7.2,7.2,0,0,0,3.71-1,5.61,5.61,0,0,0,2.45-2.76,13.81,13.81,0,0,0,.72-5.06V112.39h4.4v25.92Z"/><path class="cls-4" d="M146.37,138.31V102.52h4.4v35.79Z"/><path class="cls-4" d="M169.5,107.58v-5.06h4.4v5.06Zm0,30.73V112.39h4.4v25.92Z"/><path class="cls-4" d="M190.17,138.31v-3.56l16.5-19q-2.8.15-4.95.15H191.15v-3.56h21.19v2.9l-14,16.46-2.71,3c2-.15,3.82-.22,5.54-.22h12v3.78Z"/><path class="cls-4" d="M246.38,138.31v-3.8a9.49,9.49,0,0,1-8.23,4.39,10.38,10.38,0,0,1-4.28-.88,7,7,0,0,1-3-2.21,8.31,8.31,0,0,1-1.35-3.26,22.17,22.17,0,0,1-.27-4.1V112.39h4.4v14.38a25.86,25.86,0,0,0,.26,4.64,4.64,4.64,0,0,0,1.76,2.72,5.45,5.45,0,0,0,3.32,1,7.17,7.17,0,0,0,3.71-1,5.58,5.58,0,0,0,2.46-2.76,13.81,13.81,0,0,0,.72-5.06V112.39h4.39v25.92Z"/><path class="cls-4" d="M269.1,138.31V112.39H273V116a9.12,9.12,0,0,1,7.86-4.22,8.5,8.5,0,0,1,4.72,1.2,6.34,6.34,0,0,1,2.6,3.34,9.3,9.3,0,0,1,8-4.54,7.86,7.86,0,0,1,5.93,2.14q2.09,2.13,2.08,6.58v17.79h-4.37V122a11.9,11.9,0,0,0-.43-3.8,3.63,3.63,0,0,0-1.55-1.86,4.87,4.87,0,0,0-2.64-.71,6.16,6.16,0,0,0-4.54,1.82q-1.8,1.81-1.8,5.82v15.06h-4.4V121.47a7.49,7.49,0,0,0-1.07-4.4,4.09,4.09,0,0,0-3.52-1.46,6.3,6.3,0,0,0-3.43,1,5.52,5.52,0,0,0-2.28,2.85,16.15,16.15,0,0,0-.71,5.42v13.45Z"/><path class="cls-4" d="M339.57,135.12a16.56,16.56,0,0,1-4.7,2.93,13.63,13.63,0,0,1-4.85.85,9.44,9.44,0,0,1-6.57-2.09,6.88,6.88,0,0,1-2.29-5.33A7.18,7.18,0,0,1,322,128a7.31,7.31,0,0,1,2.27-2.53,10.92,10.92,0,0,1,3.17-1.44,30.5,30.5,0,0,1,3.9-.66,39.75,39.75,0,0,0,7.84-1.51c0-.6,0-1,0-1.15,0-1.79-.41-3-1.24-3.78a7.32,7.32,0,0,0-5-1.49,7.77,7.77,0,0,0-4.57,1.08,6.63,6.63,0,0,0-2.19,3.85l-4.3-.59a10.86,10.86,0,0,1,1.93-4.45,8.47,8.47,0,0,1,3.89-2.61,17.28,17.28,0,0,1,5.88-.92,15.56,15.56,0,0,1,5.39.78,7.15,7.15,0,0,1,3.06,2,6.88,6.88,0,0,1,1.36,3,24.33,24.33,0,0,1,.22,4v5.86a63.68,63.68,0,0,0,.28,7.75,9.91,9.91,0,0,0,1.11,3.11h-4.59A9.39,9.39,0,0,1,339.57,135.12Zm-.37-9.82A32.08,32.08,0,0,1,332,127a16.94,16.94,0,0,0-3.83.88,3.78,3.78,0,0,0-1.73,1.43,3.89,3.89,0,0,0,.72,5,5.71,5.71,0,0,0,3.89,1.17,9.09,9.09,0,0,0,4.52-1.11,6.91,6.91,0,0,0,2.9-3,10.69,10.69,0,0,0,.71-4.4Z"/><path class="cls-4" d="M366.41,138.31h-4.08V102.52h4.39v12.77a8.7,8.7,0,0,1,7.11-3.49,11,11,0,0,1,4.53,1,9.37,9.37,0,0,1,3.51,2.71,13.12,13.12,0,0,1,2.16,4.22,17.36,17.36,0,0,1,.78,5.27q0,6.66-3.29,10.3a10.29,10.29,0,0,1-7.91,3.64,8.26,8.26,0,0,1-7.2-3.83Zm-.05-13.15c0,3.1.42,5.35,1.27,6.73a6.27,6.27,0,0,0,10.59.89c1.4-1.66,2.1-4.15,2.1-7.45s-.67-5.89-2-7.5a6.14,6.14,0,0,0-4.87-2.42,6.32,6.32,0,0,0-5,2.51C367.06,119.58,366.36,122,366.36,125.16Z"/><path class="cls-4" d="M403.14,147.31H400q7.31-11.13,7.3-22.29a36.3,36.3,0,0,0-1.05-8.65,34.52,34.52,0,0,0-2.32-6.68,75.37,75.37,0,0,0-3.93-7h3.15a43.74,43.74,0,0,1,6.79,11.69,30.46,30.46,0,0,1-.65,22.69A42,42,0,0,1,403.14,147.31Z"/><path class="cls-4" d="M104.57,193.79c0,1.76-.75,2.92-2.83,4.08,2.45.62,3.67,2,3.67,4.26a5.51,5.51,0,0,1-5.72,5.46,6.81,6.81,0,0,1-3.59-1v-2.81a5.11,5.11,0,0,0,3.4,1.46,3.24,3.24,0,0,0,3.37-3.21c0-1.92-1.51-2.81-3.45-2.81H97.74V197h1c2,0,3.34-1,3.34-2.76a2.36,2.36,0,0,0-2.56-2.43,5.42,5.42,0,0,0-3.37,1.49V190.5a7.3,7.3,0,0,1,3.75-1.05C102.55,189.45,104.57,191,104.57,193.79Z"/><path class="cls-4" d="M122.12,198.6c0,5.23-2.21,9-5.8,9-3.78,0-5.67-3.92-5.67-9.15s2.29-9,5.59-9C120.12,189.45,122.12,192.9,122.12,198.6Zm-5.8,6.61c1.94,0,3.26-2.27,3.26-6.83,0-4-1.16-6.56-3.21-6.56s-3.18,2.14-3.18,6.75C113.19,202.7,114.29,205.21,116.32,205.21Z"/><path class="cls-4" d="M137.75,198.6c0,5.23-2.21,9-5.8,9-3.78,0-5.67-3.92-5.67-9.15s2.3-9,5.59-9C135.76,189.45,137.75,192.9,137.75,198.6Zm-5.8,6.61c1.94,0,3.27-2.27,3.27-6.83,0-4-1.16-6.56-3.22-6.56s-3.18,2.14-3.18,6.75C128.82,202.7,129.93,205.21,132,205.21Z"/><path class="cls-4" d="M160,196.36a3.32,3.32,0,0,1,3-1.86c2,0,3.13,1.53,3.13,3.48v9.34h-2.48v-8.88c0-.95-.54-1.6-1.32-1.6-1.16,0-2.08,1.43-2.08,2.76v7.72h-2.48v-8.61c0-1.08-.46-1.84-1.33-1.84-1.24,0-2.07,1.4-2.07,2.73v7.72h-2.49V194.77h2.27l.22,1.4a3.15,3.15,0,0,1,2.8-1.67A2.93,2.93,0,0,1,160,196.36Z"/><path class="cls-4" d="M178.58,195.9l.65-1.13h1.83V207.4c0,3.48-2.1,6-5.4,6a7.09,7.09,0,0,1-3.83-1.24v-2.86c1.4,1.32,2.46,1.84,3.59,1.84,2,0,3.16-1.78,3.16-3.81v-1.89h-.06a3.67,3.67,0,0,1-3.07,1.84c-2.54,0-4.46-2.92-4.46-6.29,0-3.65,2.16-6.53,4.81-6.53A3.71,3.71,0,0,1,178.58,195.9Zm-2.51,9.15c1.67,0,2.51-2.24,2.51-3.72v-3.14a2.83,2.83,0,0,0-2.24-1.43c-1.6,0-2.81,1.87-2.81,4.27C173.53,203.21,174.56,205.05,176.07,205.05Z"/><path class="cls-4" d="M194.37,188.67l-6.69,20.86h-2.27l6.78-20.86Z"/><path class="cls-4" d="M207.25,193.79c0,1.76-.76,2.92-2.83,4.08,2.45.62,3.67,2,3.67,4.26a5.51,5.51,0,0,1-5.73,5.46,6.86,6.86,0,0,1-3.59-1v-2.81a5.15,5.15,0,0,0,3.41,1.46,3.24,3.24,0,0,0,3.37-3.21c0-1.92-1.51-2.81-3.46-2.81h-1.67V197h1c2,0,3.34-1,3.34-2.76a2.36,2.36,0,0,0-2.56-2.43,5.47,5.47,0,0,0-3.38,1.49V190.5a7.36,7.36,0,0,1,3.76-1.05C205.23,189.45,207.25,191,207.25,193.79Z"/><path class="cls-4" d="M224.8,198.6c0,5.23-2.21,9-5.8,9-3.78,0-5.67-3.92-5.67-9.15s2.29-9,5.59-9C222.8,189.45,224.8,192.9,224.8,198.6Zm-5.8,6.61c1.94,0,3.26-2.27,3.26-6.83,0-4-1.16-6.56-3.21-6.56s-3.18,2.14-3.18,6.75C215.87,202.7,217,205.21,219,205.21Z"/><path class="cls-4" d="M247,196.36a3.32,3.32,0,0,1,3-1.86c2,0,3.13,1.53,3.13,3.48v9.34h-2.48v-8.88c0-.95-.54-1.6-1.32-1.6-1.17,0-2.08,1.43-2.08,2.76v7.72h-2.49v-8.61c0-1.08-.46-1.84-1.32-1.84-1.24,0-2.08,1.4-2.08,2.73v7.72h-2.48V194.77h2.27l.21,1.4a3.16,3.16,0,0,1,2.81-1.67A2.91,2.91,0,0,1,247,196.36Z"/><path class="cls-4" d="M261.41,188.94v15.95h6.86v2.43H258.8V188.94Z"/><path class="cls-4" d="M282.74,194.77l2.43,9.44h.06l2.34-9.44h2.7l-3.86,12.55h-2.56L280,194.77Z"/><path class="cls-4" d="M297.11,190.58c0,1-.54,1.68-1.38,1.68a1.69,1.69,0,0,1-.05-3.32A1.46,1.46,0,0,1,297.11,190.58Zm-.11,4.19v12.55h-2.48V194.77Z"/><path class="cls-4" d="M310.74,198.3v6.29c0,.33.11.76.65.76a1.23,1.23,0,0,0,.73-.25v2.22a6.84,6.84,0,0,1-1.6.16c-1.43,0-2-.49-2.16-1.59a3.35,3.35,0,0,1-2.86,1.7,3.71,3.71,0,0,1-3.69-4c0-2.35,1.53-4,6.39-4.34V199a2.07,2.07,0,0,0-2.13-2.32,5.16,5.16,0,0,0-3.16,1.48v-2.59a7.54,7.54,0,0,1,3.7-1C309.31,194.5,310.74,196.25,310.74,198.3Zm-4.59,7.16c1.24,0,2.05-1,2.05-2.92v-1.38c-1.75.22-3.86.46-3.86,2.41A1.82,1.82,0,0,0,306.15,205.46Z"/><path class="cls-4" d="M319.25,188.94v18.38h-2.49V188.94Z"/></g></g></svg>